<svg width="726" height="726" viewBox="0 0 726 726" fill="none" xmlns="http://www.w3.org/2000/svg">
<g clip-path="url(#clip0_2_3)">
<rect x="0.961327" y="363" width="512" height="512" rx="70" transform="rotate(-45 0.961327 363)" fill="#0094FF"/>
<g filter="url(#filter0_d_2_3)">
<path d="M300.429 318.754C300.429 309.008 299.035 300.497 296.247 293.22C293.592 285.814 290.008 279.901 285.494 275.483C281.113 270.935 275.604 267.297 268.967 264.568C262.329 261.709 255.492 259.76 248.456 258.72C241.553 257.681 233.787 257.161 225.158 257.161H177.766C176.04 257.161 174.646 257.096 173.584 256.966C172.655 256.836 171.792 256.446 170.996 255.797C170.332 255.017 170 253.977 170 252.678C170 247.09 173.783 241.243 181.35 235.136C188.917 229.028 196.55 225.845 204.25 225.585L242.084 225C247.527 225 252.704 225.195 257.616 225.585C262.528 225.845 268.502 226.689 275.538 228.119C282.574 229.418 289.012 231.172 294.853 233.381C300.694 235.59 306.668 238.839 312.775 243.127C319.014 247.285 324.191 252.223 328.307 257.941C332.555 263.658 336.006 270.87 338.661 279.576C341.449 288.282 342.843 297.963 342.843 308.619C342.843 336.427 328.705 359.881 300.429 378.983C296.313 381.842 294.256 384.831 294.256 387.949C294.256 390.288 295.384 393.147 297.641 396.525L344.237 469.814C347.157 474.492 348.618 478.52 348.618 481.898C348.618 487.096 345.1 491.709 338.064 495.737C332.356 499.246 327.112 501 322.333 501C317.952 501 314.102 498.206 310.783 492.619L255.625 398.085C254.032 395.746 253.235 393.472 253.235 391.263C253.235 387.624 255.758 384.376 260.802 381.517C273.812 374.37 283.636 365.339 290.273 354.424C297.044 343.508 300.429 331.619 300.429 318.754ZM170 373.525V279.966C170 275.288 171.593 272.234 174.779 270.805C178.098 269.246 183.142 268.466 189.913 268.466C197.347 268.466 202.524 269.246 205.445 270.805C208.498 272.234 210.025 275.288 210.025 279.966V350.915C210.025 356.503 212.547 359.297 217.592 359.297H252.439C258.147 359.297 261.001 360.921 261.001 364.169C261.001 367.288 257.882 370.927 251.642 375.085C245.403 379.113 237.703 382.492 228.544 385.22C222.968 386.91 209.162 387.754 187.125 387.754C180.355 387.754 175.775 386.585 173.385 384.246C171.128 381.907 170 378.333 170 373.525ZM210.025 411.534V471.958C210.025 478.325 208.631 483.068 205.843 486.186C202.524 490.085 197.812 493.528 191.705 496.517C185.731 499.506 180.819 501 176.969 501C172.323 501 170 498.206 170 492.619V411.534C170 406.856 171.659 403.672 174.978 401.983C178.43 400.294 183.541 399.449 190.311 399.449C197.612 399.449 202.723 400.294 205.644 401.983C208.564 403.542 210.025 406.726 210.025 411.534Z" fill="white"/>
<path d="M444.797 257.161H403.577C401.851 257.161 400.457 257.096 399.395 256.966C398.466 256.836 397.603 256.446 396.807 255.797C396.143 255.017 395.811 253.977 395.811 252.678C395.811 247.22 399.594 241.438 407.161 235.331C414.728 229.223 422.361 225.975 430.061 225.585C438.69 225.195 449.841 225 463.515 225C469.09 225 474.135 225.13 478.648 225.39C483.295 225.65 488.804 226.299 495.176 227.339C501.681 228.379 507.389 229.808 512.301 231.627C517.213 233.446 522.257 236.11 527.435 239.619C532.745 243.127 537.125 247.285 540.577 252.093C544.029 256.771 546.883 262.749 549.14 270.025C551.396 277.172 552.525 285.229 552.525 294.195C552.525 313.427 544.493 329.28 528.43 341.754C526.173 343.443 525.045 344.938 525.045 346.237C525.045 347.927 526.041 349.096 528.032 349.746C545.821 355.463 559.096 363.975 567.858 375.28C576.619 386.585 581 401.918 581 421.28C581 428.427 579.938 435.573 577.814 442.72C575.823 449.737 572.504 456.689 567.858 463.576C563.344 470.333 557.768 476.376 551.131 481.703C544.626 486.901 536.462 491.124 526.638 494.373C516.814 497.492 505.995 499.051 494.18 499.051C489.534 499.051 487.211 497.816 487.211 495.347C487.211 493.658 488.273 492.294 490.397 491.254C506.858 484.107 519.005 474.946 526.837 463.771C534.67 452.596 538.586 438.692 538.586 422.059C538.586 388.924 521.992 369.757 488.804 364.559C486.68 364.169 485.618 363.065 485.618 361.246C485.618 359.556 487.211 357.607 490.397 355.398C497.433 350.33 503.141 343.768 507.522 335.712C511.903 327.525 514.093 318.494 514.093 308.619C514.093 299.782 512.765 292.181 510.11 285.814C507.588 279.316 504.269 274.314 500.154 270.805C496.171 267.167 490.928 264.308 484.423 262.229C478.051 260.02 471.878 258.655 465.904 258.136C459.93 257.486 452.894 257.161 444.797 257.161ZM395.811 490.669V280.551C395.811 275.873 397.404 272.754 400.59 271.195C403.909 269.636 408.953 268.856 415.724 268.856C423.158 268.856 428.335 269.636 431.256 271.195C434.309 272.624 435.836 275.743 435.836 280.551V326.551C435.836 331.879 438.557 334.542 444 334.542H479.047C484.755 334.542 487.609 336.297 487.609 339.805C487.609 341.364 486.149 343.898 483.228 347.407C480.308 350.915 476.723 353.839 472.475 356.178C467.829 358.777 458.337 361.311 444 363.78C438.557 364.819 435.836 368.263 435.836 374.11V459.093C435.836 464.421 438.557 467.085 444 467.085H486.812C492.521 467.085 495.375 468.709 495.375 471.958C495.375 474.686 492.189 478.195 485.817 482.483C479.445 486.771 471.347 490.605 461.523 493.983C451.832 497.362 442.938 499.051 434.84 499.051H403.975C398.532 499.051 395.811 496.257 395.811 490.669Z" fill="white"/>
</g>
</g>
<defs>
<filter id="filter0_d_2_3" x="138" y="197" width="475" height="340" filterUnits="userSpaceOnUse" color-interpolation-filters="sRGB">
<feFlood flood-opacity="0" result="BackgroundImageFix"/>
<feColorMatrix in="SourceAlpha" type="matrix" values="0 0 0 0 0 0 0 0 0 0 0 0 0 0 0 0 0 0 127 0" result="hardAlpha"/>
<feOffset dy="4"/>
<feGaussianBlur stdDeviation="16"/>
<feComposite in2="hardAlpha" operator="out"/>
<feColorMatrix type="matrix" values="0 0 0 0 0 0 0 0 0 0 0 0 0 0 0 0 0 0 0.25 0"/>
<feBlend mode="normal" in2="BackgroundImageFix" result="effect1_dropShadow_2_3"/>
<feBlend mode="normal" in="SourceGraphic" in2="effect1_dropShadow_2_3" result="shape"/>
</filter>
<clipPath id="clip0_2_3">
<rect x="0.961327" y="363" width="512" height="512" rx="70" transform="rotate(-45 0.961327 363)" fill="white"/>
</clipPath>
</defs>
</svg>
